<svg xmlns="http://www.w3.org/2000/svg" version="1.1" viewBox="-5.0 -10.0 110.0 135.0">
 <path d="m31.035 23.875c1.1719 1.168 1.1758 3.0703 0.007813 4.2422-5.5938 5.6094-9.043 13.34-9.043 21.883 0 8.582 3.4805 16.344 9.1172 21.957 1.1758 1.1719 1.1758 3.0703 0.007812 4.2422-1.168 1.1758-3.0703 1.1797-4.2422 0.007812-6.7188-6.6953-10.883-15.969-10.883-26.207 0-10.195 4.125-19.43 10.793-26.117 1.168-1.1758 3.0664-1.1758 4.2422-0.007812zm37.93 0c1.1758-1.168 3.0742-1.168 4.2422 0.007812 6.668 6.6875 10.793 15.922 10.793 26.117s-4.125 19.43-10.793 26.117c-1.168 1.1758-3.0664 1.1758-4.2422 0.007812-1.1719-1.168-1.1758-3.0703-0.007813-4.2422 5.5938-5.6094 9.043-13.34 9.043-21.883s-3.4492-16.273-9.043-21.883c-1.168-1.1719-1.1641-3.0742 0.007813-4.2422zm-25.891 12c1.1758 1.168 1.1797 3.0703 0.007812 4.2422-2.5234 2.5352-4.082 6.0234-4.082 9.8828s1.5586 7.3477 4.082 9.8828c1.1719 1.1719 1.168 3.0742-0.007812 4.2422-1.1719 1.168-3.0703 1.168-4.2422-0.007812-3.6016-3.6133-5.832-8.6094-5.832-14.117s2.2305-10.504 5.832-14.117c1.1719-1.1758 3.0703-1.1758 4.2422-0.007812zm13.852 0c1.1719-1.168 3.0703-1.168 4.2422 0.007812 3.6016 3.6133 5.832 8.6094 5.832 14.117 0 5.5352-2.2539 10.547-5.8828 14.168-1.1719 1.168-3.0742 1.1641-4.2422-0.007813-1.168-1.1758-1.168-3.0742 0.007812-4.2422 2.5469-2.5391 4.1172-6.043 4.1172-9.918 0-3.8594-1.5586-7.3477-4.082-9.8828-1.1719-1.1719-1.168-3.0742 0.007812-4.2422zm-6.9258 17.125c1.6562 0 3-1.3438 3-3s-1.3438-3-3-3-3 1.3438-3 3 1.3438 3 3 3z" fill-rule="evenodd"/>
<text x="0.0" y="117.5" font-size="5.0" font-weight="bold" font-family="Arbeit Regular, Helvetica, Arial-Unicode, Arial, Sans-serif" fill="#000000">Created by shariful islam</text><text x="0.0" y="122.5" font-size="5.0" font-weight="bold" font-family="Arbeit Regular, Helvetica, Arial-Unicode, Arial, Sans-serif" fill="#000000">from Noun Project</text></svg>